{"title":"Daybreakers.2009.BRRip.Swesub.Xvid","uid":8486067,"size":732123596,"categoryP":"video","categoryS":"movies","magnet":"?xt=urn:btih:bff52ab6de445de66e5ce31ac8d5327c2d636b04&amp;dn=Daybreakers.2009.BRRip.Swesub.Xvid&amp;tr=udp%3A%2F%2Ftracker.openbittorrent.com%3A80&amp;tr=udp%3A%2F%2Fopen.demonii.com%3A1337&amp;tr=udp%3A%2F%2Ftracker.coppersurfer.tk%3A6969&amp;tr=udp%3A%2F%2Fexodus.desync.com%3A6969","seeders":0,"leechers":0,"uploader":"nordjok","files":-1,"time":1368866256,"description":"\n                            Swedish Hardsub\n\n &lt;a href=&quot;\nhttp://www.imdb.com/title/tt0433362/&quot; rel=&quot;nofollow&quot; target=&quot;_NEW&quot;&gt;\nhttp://www.imdb.com/title/tt0433362/&lt;/a&gt;\n\nGeneral\nComplete name                       : Daybreakers.2009.BRRip.Swesub.Xvid.avi\nFormat                              : AVI\nFormat/Info                         : Audio Video Interleave\nFile size                           : 698 MiB\nDuration                            : 1h 37mn\nOverall bit rate mode               : Variable\n\n\nVideo\nID                                  : 0\nFormat                              : MPEG-4 Visual\nFormat profile                      : Advanced Simple@L5\nFormat settings, BVOP               : 2\nFormat settings, QPel               : No\nFormat settings, GMC                : No warppoints\nFormat settings, Matrix             : Default (H.263)\nCodec ID                            : XVID\nCodec ID/Hint                       : XviD\nDuration                            : 1h 37mn\nBit rate                            : 856 Kbps\nWidth                               : 720 pixels\nHeight                              : 304 pixels\nDisplay aspect ratio                : 2.35:1\nFrame rate                          : 24.000 fps\nColor space                         : YUV\nChroma subsampling                  : 4:2:0\nBit depth                           : 8 bits\nScan type                           : Progressive\nCompression mode                    : Lossy\nBits/(Pixel*Frame)                  : 0.163\nStream size                         : 598 MiB (86%)\nWriting library                     : XviD 73\n\nAudio\nID                                  : 1\nFormat                              : MPEG Audio\nFormat version                      : Version 1\nFormat profile                      : Layer 3\nCodec ID                            : 55\nCodec ID/Hint                       : MP3\nDuration                            : 1h 37mn\nBit rate mode                       : Variable\nBit rate                            : 130 Kbps\nMinimum bit rate                    : 32.0 Kbps\nChannel(s)                          : 2 channels\nSampling rate                       : 48.0 KHz\nCompression mode                    : Lossy\nStream size                         : 91.0 MiB (13%)\nAlignment                           : Aligned on interleaves\nInterleave, duration                : 24 ms (0.58 video frame)\nInterleave, preload duration        : 165 ms\nWriting library                     : LAME3.99r\nEncoding settings                   : -m s -V 5 -q 0 -lowpass 17 --vbr-new -b 32\n\n","torrent":{"xt":"urn:btih:bff52ab6de445de66e5ce31ac8d5327c2d636b04","amp;dn":"Daybreakers.2009.BRRip.Swesub.Xvid","amp;tr":["udp%3A%2F%2Ftracker.openbittorrent.com%3A80","udp%3A%2F%2Fopen.demonii.com%3A1337","udp%3A%2F%2Ftracker.coppersurfer.tk%3A6969","udp%3A%2F%2Fexodus.desync.com%3A6969"],"infoHash":"bff52ab6de445de66e5ce31ac8d5327c2d636b04","infoHashBuffer":{"type":"Buffer","data":[191,245,42,182,222,68,93,230,110,92,227,26,200,213,50,124,45,99,107,4]},"announce":[],"urlList":[]}}